<svg width="20" height="20" viewBox="0 0 20 20" fill="none" xmlns="http://www.w3.org/2000/svg">
<path d="M6.66669 4.79199C6.32502 4.79199 6.04169 4.50866 6.04169 4.16699V1.66699C6.04169 1.32533 6.32502 1.04199 6.66669 1.04199C7.00835 1.04199 7.29169 1.32533 7.29169 1.66699V4.16699C7.29169 4.50866 7.00835 4.79199 6.66669 4.79199Z" fill="#FF7506"/>
<path d="M13.3333 4.79199C12.9916 4.79199 12.7083 4.50866 12.7083 4.16699V1.66699C12.7083 1.32533 12.9916 1.04199 13.3333 1.04199C13.675 1.04199 13.9583 1.32533 13.9583 1.66699V4.16699C13.9583 4.50866 13.675 4.79199 13.3333 4.79199Z" fill="#FF7506"/>
<path d="M7.08333 12.0829C6.975 12.0829 6.86667 12.058 6.76667 12.0163C6.65833 11.9746 6.575 11.9163 6.49167 11.8413C6.34167 11.6829 6.25 11.4746 6.25 11.2496C6.25 11.1413 6.275 11.0329 6.31667 10.9329C6.35833 10.8329 6.41667 10.7413 6.49167 10.6579C6.575 10.5829 6.65833 10.5246 6.76667 10.4829C7.06667 10.3579 7.44167 10.4246 7.675 10.6579C7.825 10.8163 7.91667 11.0329 7.91667 11.2496C7.91667 11.2996 7.90833 11.358 7.9 11.4163C7.89167 11.4663 7.875 11.5163 7.85 11.5663C7.83333 11.6163 7.80834 11.6663 7.775 11.7163C7.75 11.7579 7.70833 11.7996 7.675 11.8413C7.51667 11.9913 7.3 12.0829 7.08333 12.0829Z" fill="#FF7506"/>
<path d="M10 12.0837C9.89169 12.0837 9.78335 12.0587 9.68335 12.0171C9.57502 11.9754 9.49169 11.917 9.40835 11.842C9.25835 11.6837 9.16669 11.4754 9.16669 11.2504C9.16669 11.142 9.19169 11.0337 9.23336 10.9337C9.27502 10.8337 9.33335 10.7421 9.40835 10.6587C9.49169 10.5837 9.57502 10.5254 9.68335 10.4837C9.98335 10.3504 10.3584 10.4254 10.5917 10.6587C10.7417 10.8171 10.8334 11.0337 10.8334 11.2504C10.8334 11.3004 10.825 11.3587 10.8167 11.4171C10.8084 11.4671 10.7917 11.5171 10.7667 11.5671C10.75 11.6171 10.725 11.667 10.6917 11.717C10.6667 11.7587 10.625 11.8004 10.5917 11.842C10.4334 11.992 10.2167 12.0837 10 12.0837Z" fill="#FF7506"/>
<path d="M12.9166 12.0837C12.8083 12.0837 12.7 12.0587 12.6 12.0171C12.4916 11.9754 12.4083 11.917 12.325 11.842C12.2916 11.8004 12.2583 11.7587 12.225 11.717C12.1916 11.667 12.1666 11.6171 12.15 11.5671C12.125 11.5171 12.1083 11.4671 12.1 11.4171C12.0916 11.3587 12.0833 11.3004 12.0833 11.2504C12.0833 11.0337 12.175 10.8171 12.325 10.6587C12.4083 10.5837 12.4916 10.5254 12.6 10.4837C12.9083 10.3504 13.275 10.4254 13.5083 10.6587C13.6583 10.8171 13.75 11.0337 13.75 11.2504C13.75 11.3004 13.7416 11.3587 13.7333 11.4171C13.725 11.4671 13.7083 11.5171 13.6833 11.5671C13.6666 11.6171 13.6416 11.667 13.6083 11.717C13.5833 11.7587 13.5416 11.8004 13.5083 11.842C13.35 11.992 13.1333 12.0837 12.9166 12.0837Z" fill="#FF7506"/>
<path d="M7.08333 15C6.975 15 6.86667 14.975 6.76667 14.9333C6.66667 14.8917 6.575 14.8333 6.49167 14.7583C6.34167 14.6 6.25 14.3833 6.25 14.1667C6.25 14.0583 6.275 13.95 6.31667 13.85C6.35833 13.7417 6.41667 13.65 6.49167 13.575C6.8 13.2667 7.36667 13.2667 7.675 13.575C7.825 13.7333 7.91667 13.95 7.91667 14.1667C7.91667 14.3833 7.825 14.6 7.675 14.7583C7.51667 14.9083 7.3 15 7.08333 15Z" fill="#FF7506"/>
<path d="M10 15C9.78335 15 9.56669 14.9083 9.40835 14.7583C9.25835 14.6 9.16669 14.3833 9.16669 14.1667C9.16669 14.0583 9.19169 13.95 9.23336 13.85C9.27502 13.7417 9.33335 13.65 9.40835 13.575C9.71669 13.2667 10.2834 13.2667 10.5917 13.575C10.6667 13.65 10.725 13.7417 10.7667 13.85C10.8084 13.95 10.8334 14.0583 10.8334 14.1667C10.8334 14.3833 10.7417 14.6 10.5917 14.7583C10.4334 14.9083 10.2167 15 10 15Z" fill="#FF7506"/>
<path d="M12.9166 15.0004C12.7 15.0004 12.4833 14.9087 12.325 14.7587C12.25 14.6837 12.1916 14.5921 12.15 14.4838C12.1083 14.3838 12.0833 14.2754 12.0833 14.1671C12.0833 14.0587 12.1083 13.9504 12.15 13.8504C12.1916 13.7421 12.25 13.6504 12.325 13.5754C12.5166 13.3838 12.8083 13.2921 13.075 13.3504C13.1333 13.3587 13.1833 13.3754 13.2333 13.4004C13.2833 13.4171 13.3333 13.4421 13.3833 13.4754C13.425 13.5004 13.4666 13.5421 13.5083 13.5754C13.6583 13.7338 13.75 13.9504 13.75 14.1671C13.75 14.3837 13.6583 14.6004 13.5083 14.7587C13.35 14.9087 13.1333 15.0004 12.9166 15.0004Z" fill="#FF7506"/>
<path d="M17.0834 8.2002H2.91669C2.57502 8.2002 2.29169 7.91686 2.29169 7.5752C2.29169 7.23353 2.57502 6.9502 2.91669 6.9502H17.0834C17.425 6.9502 17.7084 7.23353 17.7084 7.5752C17.7084 7.91686 17.425 8.2002 17.0834 8.2002Z" fill="#FF7506"/>
<path d="M13.3333 18.9587H6.66667C3.625 18.9587 1.875 17.2087 1.875 14.167V7.08366C1.875 4.04199 3.625 2.29199 6.66667 2.29199H13.3333C16.375 2.29199 18.125 4.04199 18.125 7.08366V14.167C18.125 17.2087 16.375 18.9587 13.3333 18.9587ZM6.66667 3.54199C4.28333 3.54199 3.125 4.70033 3.125 7.08366V14.167C3.125 16.5503 4.28333 17.7087 6.66667 17.7087H13.3333C15.7167 17.7087 16.875 16.5503 16.875 14.167V7.08366C16.875 4.70033 15.7167 3.54199 13.3333 3.54199H6.66667Z" fill="#FF7506"/>
</svg>
