<svg width="48" height="48" viewBox="0 0 48 48" fill="none" xmlns="http://www.w3.org/2000/svg">
<circle opacity="0.15" cx="24" cy="24" r="23.5" fill="#6695FB" stroke="#DADADA"/>
<g clip-path="url(#clip0_209_18730)">
<path d="M17.25 12C17.4489 12 17.6397 12.079 17.7803 12.2197C17.921 12.3603 18 12.5511 18 12.75V13.5H30V12.75C30 12.5511 30.079 12.3603 30.2197 12.2197C30.3603 12.079 30.5511 12 30.75 12C30.9489 12 31.1397 12.079 31.2803 12.2197C31.421 12.3603 31.5 12.5511 31.5 12.75V13.5H33C33.7956 13.5 34.5587 13.8161 35.1213 14.3787C35.6839 14.9413 36 15.7044 36 16.5V33C36 33.7956 35.6839 34.5587 35.1213 35.1213C34.5587 35.6839 33.7956 36 33 36H15C14.2044 36 13.4413 35.6839 12.8787 35.1213C12.3161 34.5587 12 33.7956 12 33V16.5C12 15.7044 12.3161 14.9413 12.8787 14.3787C13.4413 13.8161 14.2044 13.5 15 13.5H16.5V12.75C16.5 12.5511 16.579 12.3603 16.7197 12.2197C16.8603 12.079 17.0511 12 17.25 12V12ZM13.5 18V33C13.5 33.3978 13.658 33.7794 13.9393 34.0607C14.2206 34.342 14.6022 34.5 15 34.5H33C33.3978 34.5 33.7794 34.342 34.0607 34.0607C34.342 33.7794 34.5 33.3978 34.5 33V18H13.5Z" fill="#6493F9"/>
</g>
<defs>
<clipPath id="clip0_209_18730">
<rect width="24" height="24" fill="white" transform="translate(12 12)"/>
</clipPath>
</defs>
</svg>
