<svg width="49" height="48" viewBox="0 0 49 48" fill="none" xmlns="http://www.w3.org/2000/svg">
<circle opacity="0.15" cx="24.75" cy="24" r="23" fill="#35C75A" stroke="#35C75A" stroke-width="2"/>
<g clip-path="url(#clip0_209_18861)">
<path d="M29.031 22.7194C29.1008 22.789 29.1563 22.8718 29.1941 22.9629C29.2319 23.054 29.2513 23.1517 29.2513 23.2504C29.2513 23.349 29.2319 23.4467 29.1941 23.5378C29.1563 23.6289 29.1008 23.7117 29.031 23.7814L24.531 28.2814C24.4613 28.3512 24.3786 28.4066 24.2875 28.4444C24.1963 28.4822 24.0987 28.5017 24 28.5017C23.9014 28.5017 23.8037 28.4822 23.7126 28.4444C23.6214 28.4066 23.5387 28.3512 23.469 28.2814L21.219 26.0314C21.1493 25.9616 21.094 25.8788 21.0562 25.7877C21.0185 25.6966 20.9991 25.599 20.9991 25.5004C20.9991 25.4017 21.0185 25.3041 21.0562 25.213C21.094 25.1219 21.1493 25.0391 21.219 24.9694C21.3598 24.8285 21.5508 24.7494 21.75 24.7494C21.8486 24.7494 21.9463 24.7688 22.0374 24.8066C22.1285 24.8443 22.2113 24.8996 22.281 24.9694L24 26.6899L27.969 22.7194C28.0387 22.6495 28.1214 22.5941 28.2126 22.5563C28.3037 22.5185 28.4014 22.499 28.5 22.499C28.5987 22.499 28.6963 22.5185 28.7875 22.5563C28.8786 22.5941 28.9613 22.6495 29.031 22.7194Z" fill="#35C75A"/>
<path d="M18 12C18.1989 12 18.3897 12.079 18.5303 12.2197C18.671 12.3603 18.75 12.5511 18.75 12.75V13.5H30.75V12.75C30.75 12.5511 30.829 12.3603 30.9697 12.2197C31.1103 12.079 31.3011 12 31.5 12C31.6989 12 31.8897 12.079 32.0303 12.2197C32.171 12.3603 32.25 12.5511 32.25 12.75V13.5H33.75C34.5456 13.5 35.3087 13.8161 35.8713 14.3787C36.4339 14.9413 36.75 15.7044 36.75 16.5V33C36.75 33.7956 36.4339 34.5587 35.8713 35.1213C35.3087 35.6839 34.5456 36 33.75 36H15.75C14.9544 36 14.1913 35.6839 13.6287 35.1213C13.0661 34.5587 12.75 33.7956 12.75 33V16.5C12.75 15.7044 13.0661 14.9413 13.6287 14.3787C14.1913 13.8161 14.9544 13.5 15.75 13.5H17.25V12.75C17.25 12.5511 17.329 12.3603 17.4697 12.2197C17.6103 12.079 17.8011 12 18 12V12ZM14.25 18V33C14.25 33.3978 14.408 33.7794 14.6893 34.0607C14.9706 34.342 15.3522 34.5 15.75 34.5H33.75C34.1478 34.5 34.5294 34.342 34.8107 34.0607C35.092 33.7794 35.25 33.3978 35.25 33V18H14.25Z" fill="#35C75A"/>
</g>
<defs>
<clipPath id="clip0_209_18861">
<rect width="24" height="24" fill="white" transform="translate(12.75 12)"/>
</clipPath>
</defs>
</svg>
