<svg width="6" height="7" viewBox="0 0 6 7" fill="none" xmlns="http://www.w3.org/2000/svg">
<path fill-rule="evenodd" clip-rule="evenodd" d="M2.80098 6.52148C2.70152 6.52148 2.60614 6.48198 2.53581 6.41165C2.46549 6.34132 2.42598 6.24594 2.42598 6.14648L2.42598 1.80173L0.816479 3.41198C0.781613 3.44685 0.740221 3.47451 0.694667 3.49338C0.649112 3.51225 0.600287 3.52196 0.550979 3.52196C0.501671 3.52196 0.452846 3.51225 0.407291 3.49338C0.361737 3.47451 0.320345 3.44685 0.285479 3.41198C0.250613 3.37712 0.222956 3.33573 0.204087 3.29017C0.185217 3.24462 0.175505 3.19579 0.175505 3.14648C0.175505 3.09718 0.185217 3.04835 0.204087 3.0028C0.222956 2.95724 0.250613 2.91585 0.285479 2.88098L2.53548 0.630984C2.57031 0.596061 2.6117 0.568355 2.65725 0.54945C2.70281 0.530545 2.75165 0.520814 2.80098 0.520814C2.8503 0.520814 2.89915 0.530545 2.9447 0.54945C2.99026 0.568355 3.03165 0.596061 3.06648 0.630984L5.31648 2.88098C5.35135 2.91585 5.379 2.95724 5.39787 3.0028C5.41674 3.04835 5.42645 3.09718 5.42645 3.14648C5.42645 3.19579 5.41674 3.24462 5.39787 3.29017C5.379 3.33573 5.35135 3.37712 5.31648 3.41198C5.24606 3.4824 5.15056 3.52196 5.05098 3.52196C5.00167 3.52196 4.95285 3.51225 4.90729 3.49338C4.86174 3.47451 4.82034 3.44685 4.78548 3.41198L3.17598 1.80173L3.17598 6.14648C3.17598 6.24594 3.13647 6.34132 3.06614 6.41165C2.99582 6.48198 2.90043 6.52148 2.80098 6.52148Z" fill="#FF9138"/>
</svg>
